# xmcd
#
# Track frame offsets:
#	150
#	14441
#	29237
#	43715
#	57802
#	72751
#	93361
#	108018
#	134233
#	149457
#	163308
#	182063
#	192765
#	208105
#	225286
#
# Disc length: 3190 seconds
#
# Revision: 2
# Processed by: cddbd v1.5.2PL0 Copyright (c) Steve Scherf et al.
# Submitted via: EasyCDDAExtractor 16.0.6.1
#
DISCID=d90c740f
DTITLE=Συλλογικός δίσκος - Λεβεντογέννα Κρήτη 1
DYEAR=2013
DGENRE=Κρητική
TTITLE0=Μουντάκης Κώστας - Ο αργαλειός [μ. κ στ. ιδίου]
TTITLE1=Μανιάς Νίκος - Τραγούδι μερακλίδικο [Ν. Μανιάς-Βαγγ. Μαρκογιαννάκης]
TTITLE2=Ξυλούρης Νίκος - Φιλεντέμ [παραδ., διασκ. Στ. Ξαρχάκος]
TTITLE3=Γαργανουράκης Χαράλαμπος - Το μερακλίδικο πουλί [παρ., διασκ. Χαρ. Γαρ
TTITLE3=γανουράκης]
TTITLE4=Μπερνιδάκης Γιάννης - Τα βάσανά μου χαίρομαι [Γ. Μπερνιδάκης-Δημ. Μπαξ
TTITLE4=εβανάκης]
TTITLE5=Μπικάκης Στέλιος - Το παράπονο [μ. κ στ. ιδίου]
TTITLE6=Σκορδαλός Θανάσης-Σκορδαλού Μαίρη - Ρωτώ τ' αγρίμια του βουνού [Θαν. Σ
TTITLE6=κορδαλός]
TTITLE7=Αλεφαντινός Νίκος - Λόγια του κόσμου [μ. κ στ. ιδίου]
TTITLE8=Μπερνιδάκης Γιάννης - Όσο βαρούν τα σίδερα [Γ. Μπερνιδάκης-Δημ. Μπαξεβ
TTITLE8=ανάκης]
TTITLE9=Σκουλάς Βασίλης - Ζαχαροζυμωμένη μου [μ. κ στ. ιδίου]
TTITLE10=Ψαραντώνης - Ως είναι η σπίθα λαμπερή [μ. κ στ. ιδίου]
TTITLE11=Ξυλούρης Νίκος - Ανωγειανές κοντυλιές [μ. κ στ. ιδίου]
TTITLE12=Ψαραντώνης - Να κάμω θέλω ταραχή [μ. κ στ. ιδίου]
TTITLE13=Μπικάκης Στέλιος - Το γιασεμί [μ. κ στ. ιδίου]
TTITLE14=Ξυλούρης Νίκος - Εγώ είμαι μαύρος και άσχημος [μ. κ στ. ιδίου]
EXTD=YEAR: 2013
EXTT0=
EXTT1=
EXTT2=
EXTT3=
EXTT4=
EXTT5=
EXTT6=
EXTT7=
EXTT8=
EXTT9=
EXTT10=
EXTT11=
EXTT12=
EXTT13=
EXTT14=
PLAYORDER=
